<?xml version="1.0" encoding="utf-8"?>
<!-- Generator: Adobe Illustrator 18.1.1, SVG Export Plug-In . SVG Version: 6.00 Build 0)  -->
<svg version="1.1" id="Layer_1" xmlns="http://www.w3.org/2000/svg" xmlns:xlink="http://www.w3.org/1999/xlink" x="0px" y="0px"
	 viewBox="-0.4 2.4 243.6 792" enable-background="new -0.4 2.4 243.6 792" xml:space="preserve">
<path fill="#F9EBE1" stroke="#B08874" stroke-miterlimit="10" d="M84.6,89.4c0.4,2,0.7,3.7,1.1,5.4c-2-0.9-4.3-2.4-6.1-5
	c-1.9-2.8-2-5.4-2.4-10c-0.4-4.3-0.6-7.4,1.3-8.7c1.1-0.7,2.8-0.6,4.1-0.2C82.7,76,83.3,82.3,84.6,89.4z M162,70.9
	c-1.3-0.9-3-0.6-4.3-0.2c-0.2,5.2-0.7,11.5-2,18.7c-0.4,2-0.7,3.7-1.1,5.4c2-0.9,4.5-2.4,6.3-5c1.9-2.8,2-5.4,2.4-10
	C163.5,75.2,163.8,72.2,162,70.9z M92.6,108.8c1.4,2.1,2.8,4.3,4.3,6.4c1.1,2.7,2.7,8,2.1,14.6c-0.5,5.5-2.4,9.6-3.7,12
	c2,4.1,5.6,9.7,11.3,15.5c5.9,5.8,11.9,9.3,16.2,11.1c4.1-2.4,9.8-6.5,15.3-13.2c3.5-4.4,5.9-9,7.4-12.7c-1.5-2.6-3.4-7-3.9-12.6
	c-1-10,3.1-17.7,4.8-20.5C143.5,113.7,93.6,109.8,92.6,108.8z"/>
<path fill="#F9EBE1" stroke="#B08874" stroke-miterlimit="10" d="M238.9,789.7c-3.9,5.2-13,4.8-19.2,2.8c-6.3-2-9.8-6.5-17.7-17.4
	c-5.8-7.8-12.1-17-19-26.8c0.2-5.4,0.4-13.4-0.6-22.9c-0.6-5.9-0.6-12.7-1.5-17.8c3.9,1.3,9.3,4.2,16.1,3.4c3.5-0.4,6.6-5.4,9-6.2
	c0,0-0.3,2.9-0.3,3.1c0,3.3,0.4,10.3,2.3,17.7c0.6,2.2,2.8,10,12.1,23.3c11,15.7,18.1,19,20.1,30.4
	C241.5,786,239.7,788.8,238.9,789.7z M90.1,106c3.8,6.3,8.3,10.1,10.6,12c4.3,3.5,7.8,5.2,12.8,7.6c3.5,1.7,5.1,2.2,7,2.3
	c2.1,0.1,4.2-0.4,8.9-2.9c4.6-2.5,8-4.2,11.9-7.9c6.2-5.8,9-11.9,10.4-15.1c1.4-3,2.6-6.6,3.7-12.5c2.5-12.9,2.2-24,1.9-29.8
	c-1.1-19.2-1.9-28.9-8.4-37.2c-5-6.9-12.1-10.6-18.8-12.6c0-0.9,0-1.9,0.2-2.8c-1.9,0-5.6,0-10,0.6C115.9,7,112.1,7,110.5,7
	c0,0.9,0,1.9,0.2,2.8c-7.1,2-14.1,5.8-19.4,12.4c-6.5,8.4-7.2,18.1-8.4,37.2c-0.6,9.8,0.3,16.5,1.9,29.8c0.3,2.4,0.8,6,2.5,10.4
	C87.4,100.7,88.4,103.1,90.1,106z M59.7,712.4c-4.1,0.7-10.5,2.5-17.1,0.8c-3.3-0.7-5.5-1.7-7.8-2.8c0,3.3-1.2,9-2.6,15.1
	c-2.2,8.4-6.3,14.5-12.1,23.3c-6.5,9.7-7.1,8.9-11,15.5c-5.5,8.9-11.8,19.5-7.7,25.5c3.3,4.8,12.6,4.8,19.2,2.8
	c6.5-2.2,10.4-7.2,17.7-17.4c11-14.9,16.2-22,19.6-26.6c-0.4-5.4-0.7-13.4,0-23.3C57.9,721.6,59.3,715.7,59.7,712.4z"/>
<path fill="#333333" stroke="#000000" stroke-miterlimit="10" d="M191.9,154.5c6.5,2.7,15.9,7.8,22.8,17.4c4.5,6.3,5.5,11.2,10,31.4
	c6.3,28.6,9.5,42.9,10,44.9c5.4,19.9,8.1,23,8,33.4c0,0-0.2,15.5-7.3,28.8c-12.4,23.2-43.1,28.7-77,34.8
	c-10.3,1.8-68.9,11.8-115.7-7.3c-8.4-3.4-18.6-8.7-27.4-18.8C11.5,314.8,1,302.8,0.5,287c0-1,0.7-6,2-16.1
	c1.4-10.4,2.2-16.2,3.3-23.4c1.4-8.9,2.6-16.3,4.7-25.4c1.5-6.7,4.6-16.7,10.7-36.1c5.3-17.1,6.4-20.1,10-23.4c3-2.8,9-6.8,22.8-7.3
	c25.6-1,33,12.1,64.2,18.8c12.1,2.5,25.6,5.2,41.4,0.7C175.5,170.1,186.1,160.7,191.9,154.5z"/>
<path fill="#CCCCCC" stroke="#000000" stroke-miterlimit="10" d="M199.4,264.9c0.1-1.1,2.7-22.4,8-64.9c2.8-22.8,4-32.3-2.3-38.9
	c-10.8-11.1-42.8-13-45.7-13c-1.1,0-4.5-0.2-8.2-1.9c-2.6-1.1-4.5-2.6-5.8-3.7c-1.3,3.2-3.2,6.9-5.9,10.8
	c-5.6,8-12.3,12.6-16.8,15.5c-5-2.2-13-6.5-20.1-14.8c-3.5-4.1-5.9-8-7.6-11.5c-1.3,0.9-3.2,2.2-5.8,3.3c-3.2,1.4-5.9,2-7.4,2.3
	c-0.4,0.1-0.7,0.1-0.8,0.1c-28.4,4.7-42.5,7-48.9,13.6c-4.9,5-5.8,12.3-2.7,37.4c4.2,34.3,9.1,46.6,11.3,62.2
	c7.2,50.2-13.8,126.1-9.1,133.5c1.9,3,4.3,5.5,4.3,5.5c1.2,1.3,2.5,2.5,4.1,3.8c-0.4,0-0.7,0-1.3,0.2c-1.5,0.9-0.4,3.3-1.3,7.6
	c-0.4,2-1.1,3.3-0.4,4.6c0.4,0.6,1.5,1.3,1.7,1.5c20.5,5,47.3,9.5,78.8,9.8c33.7,0.2,62.2-4.6,83.6-9.8c0.4,0,1.9-1.1,2.2-1.9
	c0.6-1.1,0-2.2-0.4-4.1c-0.7-3.9,0.2-5.4-1.3-7.1c-0.6-0.6-0.9-0.7-1.3-0.9c1.5-1.2,2.9-2.5,4.1-3.8c0,0,2.4-2.5,4.3-5.5
	C213.4,387.8,195.8,312.7,199.4,264.9z"/>
<path fill="#EEB9AF" d="M114.4,108.1c-1.5,0-3-0.6-4.6-1.5c1.3-0.4,2.8-0.9,4.1-1.5c0.6-0.2,1.3-0.6,1.9-0.7
	c1.5-0.6,2.6-1.1,3.5-1.1c0.4,0,0.7,0,0.9,0.4c0.4,0.2,0.7,0.6,1.3,0.6h0.2c0.6,0,0.9-0.6,1.3-0.7l0.2-0.2c0.2-0.2,0.6-0.4,0.9-0.4
	c0.7,0,1.5,0.4,2.4,0.7c0.7,0.4,1.7,0.7,2.6,0.9c0.7,0.2,1.5,0.2,2.2,0.2s1.3,0,2-0.2c-1.1,1.3-2.2,2-3.5,2.2
	c-0.9,0.2-2,0.2-3.9,0.2h-1.3c-0.6,0-1.1,0-1.7,0.2c-0.2,0-0.6,0-0.6,0.2c-0.4,0-0.7,0.2-1.1,0.2c-0.7,0-1.3-0.2-1.7-0.2
	s-0.6,0-0.7,0c-0.7,0-1.3,0.2-1.9,0.4c-0.4,0.2-0.7,0.2-1.1,0.4C115.1,108.1,114.7,108.1,114.4,108.1z M130.7,106.6
	c-1.1,0.6-2.2,0.8-4.6,1c-2.2,0.2-3.7,0.2-4.6,0.2h-1.3c-1,0-1.7,0-3,0.2c-0.8,0.2-1.3,0.4-1.7,0.4c-0.6,0-1.1,0.2-1.7,0.2
	c-0.2,0-0.4,0-0.6,0c-1.3-0.2-2.6-0.6-3.9-1.3c1.3,1.7,3.2,3.7,5.8,4.8c2.4,0.9,4.3,1.1,5.6,1.1c0.4,0,0.7,0,1.1,0
	c1.1,0,2.6,0,4.3-0.6c1.1-0.6,2.5-1.5,4.2-3.2c1.1-1.3,2.1-2.8,2.8-4.5C132.4,105.7,131.6,106.2,130.7,106.6z"/>
<path fill="#B08874" d="M133.4,104.3c0.2-0.2,0.4-0.4,0.5-0.6c-1.1,0.4-2,0.4-2.8,0.4s-1.5-0.2-2-0.2c-2.1,0-4-1.3-5.3-1.3
	c-0.4,0-0.7,0.2-1.1,0.4c-0.4,0.4-0.6,0.7-1.3,0.9h-0.2c-0.6,0-0.9-0.4-1.1-0.6c-0.4-0.2-0.7-0.4-1.1-0.4c-1.3,0-3,0.9-5.4,1.9
	c-1.1,0.4-2.6,0.9-4.6,1.5c1.2,0.7,2.2,1.2,3.2,1.5c-1.5-0.4-2.8-1.1-3.7-1.7c1.1,1.7,3.2,4.5,6.5,6.1c2.4,1.1,4.3,1.1,5.6,1.3
	c0.4,0,0.7,0,1.1,0c1.3,0,2.8-0.2,4.6-0.9c0.7-0.4,2.6-1.1,4.3-3.2c2-1.9,3.1-4.1,3.4-5.7C133.8,103.9,133.6,104.1,133.4,104.3z
	 M113.6,105.6c0.6-0.2,1.3-0.6,1.9-0.7c1.5-0.6,2.6-1.1,3.3-1.1c0.4,0,0.6,0,0.9,0.2c0.2,0.2,0.7,0.6,1.5,0.6h0.2
	c0.7-0.2,1.1-0.6,1.3-0.9l0.2-0.2c0.4-0.4,0.6-0.4,0.9-0.4c0.6,0,1.5,0.4,2.4,0.7c0.7,0.4,1.7,0.7,2.6,0.9c0.7,0.2,1.5,0.2,2.2,0.2
	c0.4,0,0.9,0,1.3,0c-0.9,0.7-1.9,1.3-2.8,1.5c-0.9,0.2-2,0.2-3.7,0.2h-1.3h-0.1c-0.6,0-1.1,0-1.7,0.2c-0.2,0-0.4,0-0.6,0.2
	c-0.4,0-0.7,0.2-1.1,0.2c-0.7,0-1.3-0.2-1.7-0.2h-0.2c-0.2,0-0.6,0-0.7,0c-0.7,0-1.5,0.2-2,0.4c-0.4,0.2-0.7,0.2-1.1,0.4
	c-0.4,0-0.7,0.2-1,0.2c0,0-0.1,0-0.2,0c-1.1,0-2.4-0.4-3.8-1.1C111.4,106.5,112.5,106.2,113.6,105.6z M127.4,106.9
	c-0.4,0-0.8,0.1-1.3,0.1c-1.5,0.1-2.6,0.2-3.5,0.2c0.1,0,0.1-0.1,0.1-0.1c0.7-0.2,1.3-0.2,1.5-0.2c0,0,0,0,0.2,0c0.4,0,0.9,0,1.3,0
	C126.3,106.9,126.9,106.9,127.4,106.9z M130.4,109.2c-1.5,1.7-3.2,2.6-4.1,3c-1.7,0.7-3.2,0.9-4.3,0.9c-0.4,0-0.7,0-1.1,0
	c-1.3,0-3.2-0.2-5.4-1.1c-2-0.9-3.7-2.4-4.8-3.9c0.9,0.4,1.9,0.7,3,0.7c0.2,0,0.4,0,0.6,0c0.7,0,1.1-0.2,1.9-0.2
	c0.4,0,0.9-0.2,1.7-0.4c1.3-0.2,2-0.2,3-0.2h0.6h0.7c0.9,0,2.4,0,4.6-0.2c2.4-0.2,3.5-0.4,4.8-0.9c-0.2-0.3,0.4-0.7,1-0.9
	C132,107.1,131.1,108.2,130.4,109.2z M115,93.6c-0.1-0.4-0.1-0.9-0.1-1.1c0.4-0.9,0.5-1.1,0.5-1.1s-0.1,0.4-0.1,0.9
	c0,0.4,0,0.7,0.1,1.1s0.6,0.6,0.8,0.6c0.8,0.2,1.8,0.2,2.8,0.6c0.6,0.2,1,0.6,1.4,0.9c0.4,0.2,1,0.2,1.5,0c0.4-0.2,1-0.6,1.4-0.7
	c0.6-0.2,1-0.4,1.5-0.6c0.6-0.2,1-0.2,1.4-0.2s1,0,1.1-0.4c0.3-0.4,0.1-0.9,0.1-1.3c-0.1-0.4-0.1-0.7-0.3-1.1
	c-0.1-0.3-0.2-0.5-0.3-0.6c0.1,0.1,0.2,0.3,0.3,0.4c0.1,0.2,0.3,0.6,0.4,1.1c0.1,0.4,0.3,0.9-0.1,1.5c-0.4,0.6-0.8,0.6-1.3,0.6
	c-0.4,0-1,0.2-1.4,0.4c-0.6,0.2-1,0.4-1.4,0.6s-0.8,0.6-1.5,0.9c-0.6,0.2-1.1,0.2-1.7-0.2c-0.6-0.2-1-0.7-1.4-0.9
	c-1-0.6-1.8-0.6-2.7-0.7C115.6,94.3,115.2,93.9,115,93.6z M126.7,90.3c0,0,0,0.1,0.1,0.3C126.8,90.4,126.7,90.3,126.7,90.3z"/>
<path d="M57.6,748.7c-3.3,4.5-8.5,11.5-19.6,26.6c-7.2,10-11.1,15.1-17.7,17.4c-6.3,1.9-15.7,1.9-19-3c-4.1-5.9,2.2-16.6,7.6-25.5
	c3.9-6.7,4.6-5.8,11-15.5c3.9-5.9,7.1-10.8,9.5-16.1c1.7-1.1,3.5-1.7,5.2-1.5c5.2,0.6,10.4,7.6,8.4,16.2c2.4-1.3,6.1-3.7,9.7-8
	c2.4-3,3.7-5.9,4.6-8.2C57,738.4,57.2,744.4,57.6,748.7z M240.4,779c-1.9-11.5-8.9-14.8-20.1-30.4c-3.2-4.6-5.6-8.5-7.4-11.9
	c-3-2.8-6.9-3.7-10.2-2.4c-4.6,1.9-7.4,7.8-5.2,13.5c-2.6-1.1-6.7-3.2-10.6-6.9c-1.5-1.3-2.6-2.6-3.5-3.9c0.2,4.3,0,8.2-0.2,11
	c6.9,10,13.2,19,19,26.8c7.8,10.8,11.3,15.1,17.7,17.4c5.9,2,15.3,2.4,19.2-2.8C239.7,788.8,241.5,786,240.4,779z M196.7,711.4
	c4.5-0.7,7.6-2.6,9.8-3.9c0.4-32.8,2.2-66.3,2.2-88.3c0-12.3,0-21.8,0-21.8c0-14.3-0.2-16.4,0-21.1c0.2-12.8,1.3-22.4,1.9-27.4
	c1.7-16.2,3.5-46,2.8-67.6c-0.6-15.3-3-37.2-11.3-63.7c-21.6,5.4-50.5,10.2-84.6,10c-31.5-0.2-58.3-4.8-78.8-9.8
	c-0.2-0.2-0.4-0.2-0.6-0.4c-8.4,26.5-10.8,48.3-11.3,63.7c-0.7,21.6,1.1,51.4,2.8,67.6c0.6,5,1.7,14.3,1.9,27.4
	c0.2,4.6,0,6.9,0,21.1c0,0,0,9.3,0,21.8c0,22.4,2,56.6,2.4,89.9c0,0.6,0,1.5,0,2.2c1.9,0.9,4.1,1.7,6.5,2.4c0,0,1.3,0.4,2.6,0.6
	c5.8,0.9,17.2-0.6,17.7-0.7c0.4-3.5,1.3-9.7,2.6-17.5c3.5-20.5,7.1-30.2,14.9-63.1c7.4-32,4.6-26.1,11.1-53.5
	c7.4-30.9,12.3-43,20-77.7c2.4-10.8,4.1-19.8,5.2-25.7c0-0.9,0-1.9,0.2-2.8c1.7-2,3.5-3.2,5.2-3.3c1.9,0,4.1,1.3,5.9,3.7
	c0,0.7,0,1.7,0,2.4c1.1,5.8,2.8,14.8,5.2,25.7c7.6,34.6,12.4,46.6,20,77.7c6.5,27.4,3.7,21.3,11.1,53.5
	c7.4,31.8,10.6,43.3,14.9,63.1c1.3,5.8,2.2,10.4,2.8,13.2C182.3,710.5,188.6,712.9,196.7,711.4z M112.9,125.1c0,0,0-0.2,0-0.4
	C112.7,125.1,112.7,125.1,112.9,125.1z M112.9,125.1L112.9,125.1C112.9,125.1,113.1,125.1,112.9,125.1
	C112.9,125.1,113.1,125.1,112.9,125.1z M148.4,70.7c0,0-0.9-0.9-2.4-1.9c-1.7-0.9-4.1-1.9-6.7-1.7c-0.6,0-1.3,0.2-1.9,0.4
	c-0.6,0.2-1.1,0.4-1.7,0.7c-1.1,0.6-1.9,1.3-2.6,1.9c-1.3,1.3-1.9,2.6-1.9,2.6s0.2-0.2,0.6-0.6c0.4-0.4,0.9-0.9,1.7-1.5
	s1.7-1.1,2.6-1.5c0.4-0.2,0.7-0.4,1.3-0.4c0,0.2,0,0.4,0,0.6c0,1.9,1.5,3.3,3.3,3.3l0,0c1.9,0,3.3-1.5,3.3-3.3c0-0.2,0-0.4,0-0.4
	c0.7,0.2,1.3,0.4,1.9,0.7C147.5,70.2,148.4,70.7,148.4,70.7z M114.4,124.9C114.4,125.1,114.4,125.1,114.4,124.9
	C114.4,125.1,114.4,125.1,114.4,124.9C114.4,125.1,114.4,125.1,114.4,124.9z M130.9,64.6c1.1,0.3,2.7,0.8,4.7,0.8
	c2,0.1,3.5-0.2,7.3-1.3c2.1-0.6,4.7-1.3,7.7-2.2c-0.9-0.3-2.3-0.8-4.2-0.9c-2.1-0.1-2.8,0.4-6.5,0.8c-2,0.3-3.8,0.5-6.1,0.3
	c-2.2-0.1-3.9-0.6-5-0.9c0,0.3,0,0.9,0.3,1.6C129.6,64.1,130.6,64.5,130.9,64.6z M115.9,124.9L115.9,124.9L115.9,124.9L115.9,124.9
	L115.9,124.9z M107.7,66.3c0.9,0.2,2,0.7,3.3,0.2c1.1-0.6,1.7-1.9,2-2.6c-0.8-0.1-2.1-0.2-3.7-0.5c-2.2-0.4-2.5-0.6-4.3-1
	c0,0-4.9-1-9.4-0.4c-0.6,0.1-1.2,0.2-2,0.4c-1.5,0.4-2.6,1.1-3.3,1.6c1.4,0,3.2-0.1,5.4,0.1c0.7,0,1.5,0.1,2.4,0.2
	C99.8,64.4,101.6,65.1,107.7,66.3z M114.2,125.1L114.2,125.1L114.2,125.1L114.2,125.1z M108.4,70.5c0.7,0.6,1.3,1.1,1.7,1.5
	s0.6,0.6,0.6,0.6s-0.6-1.1-1.9-2.6c-0.7-0.7-1.5-1.3-2.6-1.9c-0.6-0.2-1.1-0.6-1.7-0.7c-0.6-0.2-1.3-0.4-1.9-0.4
	c-2.6-0.2-5,0.7-6.7,1.7c-1.7,0.9-2.4,1.9-2.4,1.9s1.1-0.7,2.8-1.3c0.7-0.4,1.5-0.6,2.2-0.7c0,0.2,0,0.4,0,0.6
	c0,1.9,1.5,3.3,3.3,3.3c1.9,0,3.3-1.5,3.3-3.3c0-0.2,0-0.4,0-0.6c0.4,0.2,0.7,0.2,0.9,0.4C106.8,69.4,107.7,70,108.4,70.5z"/>
<path d="M120.2,31.9c-2.3-1.3-6-2.7-10.3-2.2c-8.1,1.1-15.2,8.8-17.1,19.6c-0.6-1.6-1.2-3.2-1.8-4.8c-0.8,1.3-1.7,3.2-2.3,5.7
	C88.1,52.5,88,54.5,88,56c-0.7-0.9-1.3-1.8-2-2.7c-0.4,2-0.8,4-1.2,6.2c-1.1,6.9-1.3,13.2-1.2,18.9c-1.7-5.4-2.5-10-2.8-13.2
	c-0.6-5-0.3-7.9-2-11.7c-1.5-3.5-3.9-6-5.7-7.5c-0.1-3.8,0.2-9.5,2.3-16.1c1.8-5.5,5.4-16.9,16.8-23.3C102,1,112.4,2.4,115.9,3
	c2.9,0.5,5.2,1.3,6.8,2c3-0.9,8.2-2,14.3-1c15.3,2.4,23.1,15.3,24.3,17.3c5.4,9.2,5.2,18.4,4.8,22.1c-1.8,2.4-4,6.3-5.2,11.3
	c-0.5,2.2-0.6,3.9-0.7,5c-0.3,4.1-1,10.2-2.8,18.8c0.7-4.8,0.9-11.7-0.8-19.6c-0.8-3.4-1.8-6.3-2.8-8.8c-0.1,1.3-0.2,2.7-0.3,4
	c-2.8-1.8-6.8-4.8-10.2-9.5c-4.5-6.4-4.4-10.9-8.5-13.3C132.3,29.6,128.1,28.7,120.2,31.9z"/>
<path d="M159.3,68.8h-3l-0.1-1.9c0-0.8-0.3-2.8-1.9-4.4c-1.6-1.7-3.6-2-4.4-2l-18.5,0.1h-0.2c-0.8,0.1-3,0.7-4.5,2.7
	c-1.4,1.8-1.6,3.7-1.6,4.6l-0.1,0.7c-1-0.9-2.2-1.8-3-2c-1.6-0.4-3.3,0.3-5.3,2.2l-0.1-0.8c0-1-0.2-2.9-1.6-4.7
	c-1.6-2-3.7-2.5-4.6-2.6H91.7c-0.8,0.1-2.7,0.4-4.4,2c-1.6,1.7-1.9,3.7-1.9,4.5v1.3H80v2h5.3v0.9c-0.1,1.4-0.2,6.1,3.5,9.7
	c2.1,2.1,4.6,2.8,6.3,3.1c1.7,0.3,3.5,0.5,5.3,0.5h0.1c1.8,0,3.6-0.2,5.3-0.5c1.6-0.1,4.6-0.5,7.3-2.9c3.7-3.3,3.9-7.7,3.9-9.1
	l-0.1-0.8c1.9-2.1,3.5-3.1,4.6-2.8c0.8,0.2,2.5,1.9,3.2,2.7l-0.1,1.1c0,1.3,0.2,5.7,3.9,9c2.7,2.3,5.7,2.8,7.3,2.9
	c1.7,0.3,3.5,0.5,5.3,0.5l0,0c1.8,0,3.6-0.2,5.3-0.5s4.1-1.1,6.3-3.1c3.7-3.6,3.6-8.4,3.5-9.7v-0.4h3v-2.3H159.3z M111.8,79.7
	c-2.2,2-4.8,2.3-6.1,2.4h-0.2c-1.6,0.3-3.3,0.5-5,0.5l-0.1,1v-1c-1.6,0-3.3-0.2-4.9-0.5c-1.4-0.2-3.4-0.9-5.2-2.6
	c-3.2-3.1-3-7.3-2.9-8.2l0.1-4.3c0-0.5,0.2-1.9,1.3-3.1c1.1-1.2,2.5-1.4,3-1.4h18.4c0.7,0.1,2.1,0.5,3.2,1.9
	c1.1,1.3,1.2,2.8,1.2,3.5l0.4,4.3C115,73,114.9,76.9,111.8,79.7z M151.4,79.5c-1.8,1.7-3.8,2.4-5.2,2.6c-1.6,0.3-3.3,0.5-5,0.5v1v-1
	c-1.7,0-3.3-0.2-5-0.5H136c-1.3,0-3.9-0.4-6.1-2.4c-3.1-2.7-3.3-6.4-3.3-7.4v-0.6l0.3-0.1l-0.1-0.7c0-0.1-0.1-0.2-0.1-0.3l0.2-2.7
	c0-0.6,0.1-2.1,1.2-3.4c1.1-1.4,2.6-1.8,3.2-1.9l18.4-0.1c0.5,0,1.9,0.2,3.1,1.4c1.1,1.2,1.3,2.6,1.3,3.1l0.1,4.4
	C154.4,72.2,154.6,76.5,151.4,79.5z"/>
<path fill="#FFFFFF" d="M203.4,416.2c-0.4,0.8-0.9,1.3-1.3,1.5v0.2c-21.7,5.4-50.5,10.2-84.6,10c-30.6-0.2-56.9-4.5-77-9.3
	c-0.5-0.1-3.1-1.4-3.5-2c-0.7-1.3,0-2.6,0.4-4.6c0.9-4.3-0.2-6.7,1.3-7.6c0.2-0.2,0.3-0.2,0.4-0.2c0.1,0,0.5,0,0.7,0
	c21.7,4.2,48.9,7.8,79.9,7.9c31.5,0,58.9-3.7,80.7-8c0.4,0.2,0.7,0.3,1.3,0.9c1.5,1.7,0.6,3.2,1.3,7.1
	C203.4,414,204,415.1,203.4,416.2z M123,180.2c4.6-2.2,12.2-6.6,19.5-14.6c5.9-6.7,9.5-13.4,11.5-18.5c-0.9-0.2-1.9-0.6-2.8-0.9
	c-2.6-1.1-4.5-2.6-5.8-3.7c-1.3,3.2-3.2,6.9-5.9,10.8c-5.6,8-12.3,12.6-16.8,15.5c-5-2.2-13-6.5-20.1-14.8c-3.5-4.1-5.9-8-7.6-11.5
	c-1.3,0.9-3.2,2.2-5.8,3.3c-0.7,0.4-1.3,0.6-2,0.7c1.5,3.2,3.2,6.5,5.6,9.8C102.5,170.2,115.5,177.2,123,180.2z M152.8,204.5
	c-0.5,0-1.2,0.3-2.1,0.8c-5,4.7-7.5,9.5-7.5,14.4v0.4c0,3.9,1.5,6,4.6,6.4c2.3,0,4.3-1.2,6-3.6v-0.8c0-0.7-0.2-1.1-0.5-1.3h-0.4
	c-2,1.3-3.9,1.9-5.6,1.9h-0.1c-1.7,0-2.6-1-2.6-3v-0.2c0-0.8,0.3-2,1-3.6c2.7-5.2,5.1-7.8,7-7.8l0.5,0.4l-0.6,3.2v0.2l0.2,0.4
	c1.3-0.8,2-2.4,2-4.9V207c-0.1-1.6-0.6-2.5-1.3-2.5H152.8z M102.6,213.4l0.1-0.6l0.5,0.8c3.3,8.5,5.6,12.8,7,12.8l0.8-0.4
	c0.2-0.9,0.6-7.8,1.4-20.7c0-0.5-0.1-0.7-0.4-0.7h-0.4l-0.5,0.6c-0.3,1.6-0.8,6.9-1.4,16c-1.9-3.3-3.6-7.2-5.2-11.8
	c-0.8-3.1-1.5-4.7-2.1-4.7l-0.6,0.6c-0.3,0-0.8,6.8-1.4,20.3c0.1,0.5,0.4,0.9,0.9,1.1c0.6,0,0.9-0.8,1-2.3l-0.1-1.1V222L102.6,213.4
	z M154.7,218.7c0-5.9,1.9-10.4,5.6-13.5c0.9-0.5,1.9-0.8,2.7-0.8c2.7,0.5,4.1,2.9,4.1,7c0,5.4-1.5,9.9-4.5,13.5
	c-1.2,1-2.3,1.5-3.3,1.5c-2.4,0-3.9-1.8-4.6-5.5l-0.1-1.7V218.7z M156,219.3c1,2.1,2.3,3.2,3.9,3.2c2.6,0,4.4-2.2,5.4-6.6l0.2-2.1
	c0-3.1-1.1-4.9-3.2-5.5H162c-1.8,0-3.6,2.5-5.5,7.6C156.2,217.4,156,218.6,156,219.3z M98.5,217.1c0.8,4,1.2,6.7,1.2,8.1
	c-0.2,0.8-0.5,1.1-1,1.1c-0.6,0-1.1-2-1.4-6l-0.1-0.2h-0.1c-1.1,0-3.3,0.9-6.8,2.6c-0.3,2.5-0.9,3.8-1.6,3.8
	c-0.5-0.3-0.7-0.8-0.7-1.5c0-1.4,2.3-8.1,6.8-19.9l0.6-0.6h0.5C96.6,204.5,97.4,208.7,98.5,217.1z M96.5,216.5l-1.1-6.8h-0.2
	c-1,2.4-1.9,4.9-2.7,7.5h0.9C94.2,217.3,95.2,217,96.5,216.5z M167.1,225.6l0.5,0.7h0.5c0.2,0,0.4-1,0.6-3l3.5-12h0.1l0.6,7.9
	c0,4.1,0.5,6.2,1.5,6.2c0.3-0.1,0.8-0.5,1.3-1.3c1.7-6.9,2.9-11.1,3.6-12.7l0.9,6c0.5,6.1,1,9.2,1.3,9.2c0.5,0,0.8-0.4,1-1.3
	c0-2.5-0.3-5.5-1-9.2c-0.7-7.1-1.3-10.7-1.6-10.7h-0.3c-0.5,0-2,5.1-4.5,15.4h-0.1c-0.5-5.4-0.7-10.2-0.7-14.3v-0.4
	c0-0.7-0.2-1.2-0.6-1.5h-0.2l-0.6,0.2c-0.4,0.2-1.3,3.2-2.6,9c-1.9,5.6-2.9,9.2-2.9,10.9V225.6z M81.5,226.5h0.2
	c0.8,0,1.7-0.2,2.6-0.7c2.3-1.8,3.5-4,3.5-6.5v-1.1c0-1.8-0.3-3.1-1-3.9l-6.9-1.9v-0.2c2.6-2.8,4.4-4.3,5.3-4.4l0.4,0.4l-0.5,2.8
	c0.1,0.6,0.3,0.9,0.4,0.9h0.2c0.9-1.6,1.4-3.3,1.4-5.2v-0.4c0-1.1-0.5-1.7-1.4-1.9h-0.2l-1.6,0.4c-4.3,3-6.5,6.1-6.5,9.1
	c0,1.2,0.8,2.1,2.4,2.8c4.5,0.4,6.7,1.3,6.7,2.8c-1.4,2.2-2.9,3.3-4.5,3.3c-1,0-1.6-0.1-1.6-0.4c-1.3,0-2.1-1.2-2.6-3.5
	c-0.5,0-0.7,0.7-0.7,2v1.1C77.7,225,79.1,226.5,81.5,226.5z M121.2,204.5c2.7,0.5,4.1,2.9,4.1,7c0,5.4-1.5,9.9-4.5,13.5
	c-1.2,1-2.3,1.5-3.3,1.5c-2.4,0-3.9-1.8-4.6-5.5l-0.1-1.7v-0.6c0-5.9,1.9-10.4,5.6-13.5C119.5,204.8,120.4,204.5,121.2,204.5z
	 M120.5,208.3h-0.3c-1.8,0-3.6,2.5-5.5,7.6c-0.3,1.5-0.5,2.7-0.5,3.4c1,2.1,2.3,3.2,3.9,3.2c2.6,0,4.4-2.2,5.4-6.6l0.2-2.1
	C123.7,210.7,122.6,208.9,120.5,208.3z M61.7,226.5c0.7,0,1.2-0.7,1.3-2.1v-2.1c0-3.2,0.3-8.9,0.9-17.1c0-0.5-0.1-0.8-0.4-0.8h-0.8
	l-0.5,0.8c-0.5,5.1-1,11.9-1.3,20.5l0.5,0.8H61.7z M134.2,204.5c2.7,0.5,4.1,2.9,4.1,7c0,5.4-1.5,9.9-4.5,13.5
	c-1.2,1-2.3,1.5-3.3,1.5c-2.4,0-3.9-1.8-4.6-5.5l-0.1-1.7v-0.6c0-5.9,1.9-10.4,5.6-13.5C132.4,204.8,133.3,204.5,134.2,204.5z
	 M133.4,208.3h-0.3c-1.8,0-3.6,2.5-5.5,7.6c-0.3,1.5-0.5,2.7-0.5,3.4c1,2.1,2.3,3.2,3.9,3.2c2.6,0,4.4-2.2,5.4-6.6l0.2-2.1
	C136.6,210.7,135.5,208.9,133.4,208.3z M138.7,224.6v0.2c0,0.8,0.3,1.4,0.9,1.8c1.2-0.1,1.8-0.8,1.8-2.1c-0.2-1.3-0.6-1.9-1.3-1.9
	C139.5,222.5,139,223.2,138.7,224.6z M65.5,226.5c0.6,0,0.9-0.8,1-2.3l-0.1-1.1V222l0.4-8.6l0.1-0.6l0.5,0.8
	c3.3,8.5,5.6,12.8,7,12.8l0.8-0.4c0.2-0.9,0.6-7.8,1.4-20.7c0-0.5-0.1-0.7-0.4-0.7h-0.4l-0.5,0.6c-0.3,1.6-0.8,6.9-1.4,16
	c-1.9-3.3-3.6-7.2-5.2-11.8c-0.8-3.1-1.5-4.7-2.1-4.7l-0.6,0.6c-0.3,0-0.8,6.8-1.4,20.3C64.7,225.9,65,226.2,65.5,226.5z"/>
</svg>
