<?xml version="1.0" encoding="utf-8"?>
<!-- Generator: Adobe Illustrator 18.1.1, SVG Export Plug-In . SVG Version: 6.00 Build 0)  -->
<svg version="1.1" id="Layer_1" xmlns="http://www.w3.org/2000/svg" xmlns:xlink="http://www.w3.org/1999/xlink" x="0px" y="0px"
	 viewBox="-0.5 1.4 241.3 792" enable-background="new -0.5 1.4 241.3 792" xml:space="preserve">
<path fill="#F5E0CD" stroke="#B08874" stroke-miterlimit="10" d="M238.5,788.7c-3.9,5.2-13,4.8-19.1,2.8c-6.3-2-9.8-6.5-17.6-17.3
	c-5.8-7.8-12.1-16.9-18.9-26.8c0.2-5.4,0.4-13.4-0.6-22.8c-0.6-5.9-0.6-12.7-1.5-17.7c3.9,1.3,9.3,4.2,16,3.4c3.5-0.4,6.6-5.4,9-6.2
	c0,0-0.3,2.9-0.3,3.1c0,3.3,0.4,10.3,2.3,17.6c0.6,2.2,2.8,10,12.1,23.2c11,15.6,18,18.9,20,30.4C241.1,785,239.3,787.8,238.5,788.7
	z M89.8,106.9c2.2,4.5,4.6,7.8,6.5,10.2c0,0,0,0.2,0,0.4c3.2,3,9.1,7.4,17.6,9.3c3.3,0.7,8.7,1.9,15,0c7.6-2.2,12.1-7.1,13.9-9.5
	l0,0c1.9-2.4,4.3-5.8,6.5-10.2c1.9-3.7,3.9-8.7,5.6-17.6c2.6-13.9,2-25.5,1.9-29.8c-1.1-19.1-1.9-28.9-8.4-37.2
	c-5-6.9-12.1-10.6-18.7-12.6c0-0.9,0-1.9,0.2-2.8c-1.9,0-5.6,0-10,0.6c-4.6-0.6-8.4-0.6-10-0.6c0,0.9,0,1.9,0.2,2.8
	c-7.1,2-14.1,5.8-19.3,12.4c-6.5,8.4-7.2,18-8.4,37.2c-0.2,4.3-0.7,15.8,1.9,29.8C85.9,98.2,88.3,103.4,89.8,106.9z M59.6,711.5
	c-4.1,0.7-10.5,2.5-17,0.8c-3.3-0.7-5.5-1.7-7.8-2.8c0,3.3-1.2,9-2.6,15c-2.2,8.4-6.3,14.5-12.1,23.2c-6.5,9.7-7.1,8.9-11,15.4
	c-5.6,8.9-11.9,19.5-7.8,25.5c3.3,4.8,12.6,4.8,19.1,2.8c6.5-2.2,10.4-7.2,17.6-17.3c11-14.8,16.1-21.9,19.5-26.6
	c-0.4-5.4-0.7-13.4,0-23.2C57.8,720.7,59.2,714.8,59.6,711.5z"/>
<path fill="#F5E0CD" stroke="#B08874" stroke-miterlimit="10" d="M163.1,79.6c-0.4,4.6-0.5,7.2-2.4,10c-1.8,2.6-4.3,4.1-6.3,5
	c0.4-1.7,0.7-3.4,1.1-5.4c1.3-7.1,1.8-13.4,2-18.6c1.3-0.4,3-0.7,4.3,0.2C163.6,72.1,163.3,75.1,163.1,79.6z M82.3,70.8
	c-1.3-0.4-3-0.5-4.1,0.2c-1.9,1.3-1.7,4.4-1.3,8.7c0.4,4.6,0.5,7.2,2.4,10c1.8,2.6,4.1,4.1,6.1,5c-0.4-1.7-0.7-3.4-1.1-5.4
	C83.1,82.2,82.4,75.9,82.3,70.8z M143.4,117.3c-2.2,2.6-7.4,7.8-15.8,9.5c-4.5,0.9-8.2,0.6-10.4,0.2c-9.7-1.3-16.5-6.3-20.2-9.7
	c0,0.2,0,0.4,0,0.4c1.9,6.5,3.7,17.3-1.9,23.9c2,4.1,5.6,9.7,11.3,15.4c5.9,5.8,11.9,9.3,16.1,11.1c4.1-2.4,9.8-6.5,15.2-13.2
	c3.6-4.3,6-8.9,7.6-12.6C139.2,135.4,141.6,123.9,143.4,117.3z"/>
<path fill="#DD4B4B" stroke="#BE1E2D" stroke-miterlimit="10" d="M203.8,310.6c4.6-2,10.8-8,13.9-55.8c2.2-35,0.2-50.6-0.9-57.6
	c-3.2-20.2-4.8-30.4-12.1-36.3c-12.6-10-41.1-12.8-45.6-13c-1.1,0-4.5-0.2-8.2-1.9c-2.6-1.1-4.5-2.6-5.8-3.7
	c-1.3,3.2-3.2,6.9-5.9,10.8c-5.6,8-12.3,12.6-16.7,15.4c-5-2.2-13-6.5-20-14.7c-3.5-4.1-5.9-8-7.6-11.5c-1.3,0.9-3.2,2.2-5.8,3.3
	c-3.9,1.7-7.1,2.2-8.2,2.4c-22.1,3.5-36.9,5.9-45.6,13c-7.2,5.9-8.9,16-12.1,36.3c-1.1,7.1-3.2,22.6-0.9,57.6
	c3.2,47.8,9.3,53.7,13.9,55.8c4.5,2,9.3,1.1,13,0c-2.2,3-37.2,52.8-17.6,83.7c2,3.2,4.6,6.3,8.4,9.3c-0.4,0-0.7,0-1.3,0.2
	c-1.5,0.9-0.4,3.3-1.3,7.6c-0.4,2-1.1,3.3-0.4,4.6c0.4,0.6,1.5,1.3,1.7,1.5c20.4,5,47.2,9.5,78.7,9.8c33.7,0.2,62.1-4.6,83.5-9.8
	c0.4,0,1.9-1.1,2.2-1.9c0.6-1.1,0-2.2-0.4-4.1c-0.7-3.9,0.2-5.4-1.3-7.1c-0.6-0.6-0.9-0.7-1.3-0.9c3.7-3,6.3-6.1,8.4-9.3
	c19.5-30.9-15.4-80.8-17.6-83.7C194.3,311.7,199.2,312.6,203.8,310.6z"/>
<path fill="#DD4B4B" stroke="#BE1E2D" stroke-miterlimit="10" d="M114.3,277.1c-4.2-1.7-7.6-3.2-9.9-4.2c-5.5-2.4-7.3-3.3-10.5-4.1
	c-3.1-0.7-5-0.5-8.3-1c-3.8-0.6-9.2-1.3-16.3-1.8c-0.2-0.4-0.6-1.1-1-2c-0.8-1.7-1.4-3.7-2.2-7.5c-0.7-3.5-1-6.4-1.2-8.5
	c-0.3-3-0.2-3.7-0.6-5.7c-0.5-3.2-1.2-5.6-1.5-6.1c-4.1-6.7-2-19.7-4.1-32c-2.8-16.7-12.4-28.7-16.7-33.9c-2.6-3.3-5.4-6.1-8-8.4
	c-6.1,5.9-7.8,16.1-10.8,35.2c-1.1,7.1-3.2,22.6-0.9,57.6c3.2,47.8,9.3,53.7,13.9,55.8c2.8,1.3,5.6,1.3,8.4,1.1
	c1.3-0.4,3-0.7,4.6-1.1c9.1-1.3,13-0.9,13-0.9c1.3,0.2,3,0.4,5.2,0c3.9-0.7,4.3-2.2,6.9-2.4c4.5-0.4,6.7,4.1,8.9,3.2
	c0.9-0.4,1.9-1.7,1.9-5.9c2.6,1.1,5.8,0.4,7.4-1.5c2-2.2,1.3-5.2,1.3-5.6c1.7-0.6,3.2-0.9,4.3-1.3c3-0.7,5.9-1.5,9.7-1.7
	c2.6-0.2,3.1,0.2,3.7,0c0,0,0.3-0.1,0.6-0.2c2.5-1.5,3.1-7.1,3.1-7.1C115.6,285.1,115.7,281.5,114.3,277.1z"/>
<path fill="#DD4B4B" stroke="#BE1E2D" stroke-miterlimit="10" d="M216.8,197.1c-3-18.9-4.6-29.2-10.8-35.2c-2.4,1.5-5.4,3.5-8.4,6.3
	c-9.8,9.1-13.4,19.5-17.6,32.2c-5,14.8-6.1,27-6.5,32.6c-0.6,8.7,0,16.3,0.6,21.9c-1.5-0.4-2.8,0.2-3.7,1.3c-0.9,1.3-0.9,3,0,4.3
	c-1.1-1.1-2.8-1.7-4.3-1.3c-1.9,0.6-3.3,2.6-3.2,4.8c-0.6-0.2-6.5-1.7-11-3.2c-2.8-0.9-3.3-1.1-3.9-1.5c-0.7-0.6-1.3-1.3-2.4-1.5
	c0,0-0.9-0.2-2,0.4c-1.9,0.7-7.1,5.6-8.7,15c-0.6,2.6-0.9,7.1,0.2,12.6c0.2,0.6,0.2,1.1,0.6,2c0.4,0.9,0.6,1.5,1.1,1.9
	c0.9,0.7,2.2,0.6,2.8,0.4c2.2-0.4,4.5,0.6,9.3,2.2c2,0.7,4.8,1.9,8,4.1c0.2,4.6,1.5,6.1,2.8,6.9c1.7,0.9,2.8-0.4,5,0.6
	c2.4,1.1,2.4,3.5,4.3,4.1c0.9,0.2,2.4,0.2,5-2.2c-0.2,2,1.3,4.1,3.3,4.3c1.9,0.2,3.5-0.9,4.1-2.6c-0.2,1.3,0.4,2.6,1.1,3
	c1.1,0.6,3.2-0.4,3.7-2.4c0.9,0.6,2.6,1.5,4.3,2.4c3.7,1.1,8.5,2,13,0c4.6-2,10.8-8,13.9-55.8C220,219.8,217.8,204.2,216.8,197.1z"
	/>
<path fill="#EEB9AF" d="M114.2,107.9c-1.5,0-3-0.6-4.6-1.5c1.3-0.4,2.8-0.9,4.1-1.5c0.6-0.2,1.3-0.6,1.9-0.7
	c1.5-0.6,2.6-1.1,3.5-1.1c0.4,0,0.7,0,0.9,0.4c0.4,0.2,0.7,0.6,1.3,0.6h0.2c0.6,0,0.9-0.6,1.3-0.7l0.2-0.2c0.2-0.2,0.6-0.4,0.9-0.4
	c0.7,0,1.5,0.4,2.4,0.7c0.7,0.4,1.7,0.7,2.6,0.9c0.7,0.2,1.5,0.2,2.2,0.2c0.7,0,1.3,0,2-0.2c-1.1,1.3-2.2,2-3.5,2.2
	c-0.9,0.2-2,0.2-3.9,0.2h-1.3c-0.6,0-1.1,0-1.7,0.2c-0.2,0-0.6,0-0.6,0.2c-0.4,0-0.7,0.2-1.1,0.2c-0.7,0-1.3-0.2-1.7-0.2
	c-0.4,0-0.6,0-0.7,0c-0.7,0-1.3,0.2-1.9,0.4c-0.4,0.2-0.7,0.2-1.1,0.4C114.8,107.9,114.4,107.9,114.2,107.9z M130.5,106.6
	c-1.1,0.5-2.2,0.7-4.6,0.9c-2.2,0.2-3.7,0.2-4.6,0.2H120c-1,0-1.7,0-3,0.2c-0.8,0.2-1.3,0.4-1.7,0.4c-0.6,0-1.1,0.2-1.7,0.2
	c-0.2,0-0.4,0-0.6,0c-1.3-0.2-2.6-0.6-3.9-1.3c1.3,1.6,3.2,3.7,5.8,4.8c2.4,0.9,4.3,1.1,5.6,1.1c0.4,0,0.7,0,1.1,0
	c1.1,0,2.6,0,4.2-0.5c1.1-0.6,2.6-1.5,4.3-3.2c1.1-1.3,2.1-2.8,2.8-4.5C132.2,105.7,131.4,106.2,130.5,106.6z"/>
<path fill="#B08874" d="M133.2,104.2c0.2-0.2,0.4-0.4,0.5-0.6c-1.1,0.4-2,0.4-2.8,0.4c-0.7,0-1.5-0.2-2-0.2c-2.1,0-4.1-1.3-5.3-1.3
	c-0.4,0-0.7,0.2-1.1,0.4c-0.4,0.4-0.6,0.7-1.3,0.9H121c-0.6,0-0.9-0.4-1.1-0.6c-0.4-0.2-0.7-0.4-1.1-0.4c-1.3,0-3,0.9-5.4,1.9
	c-1.1,0.4-2.6,0.9-4.6,1.5c1.2,0.7,2.2,1.2,3.2,1.5c-1.5-0.4-2.8-1.1-3.7-1.7c1.1,1.7,3.2,4.5,6.5,6.1c2.4,1.1,4.3,1.1,5.6,1.3
	c0.4,0,0.7,0,1.1,0c1.3,0,2.8-0.2,4.6-0.9c0.7-0.4,2.6-1.1,4.3-3.2c1.9-2,3-4.2,3.4-5.7C133.6,103.8,133.4,104,133.2,104.2z
	 M113.4,105.5c0.6-0.2,1.3-0.6,1.9-0.7c1.5-0.6,2.6-1.1,3.3-1.1c0.4,0,0.6,0,0.9,0.2c0.2,0.2,0.7,0.6,1.5,0.6h0.2
	c0.7-0.2,1.1-0.6,1.3-0.9l0.2-0.2c0.4-0.4,0.6-0.4,0.9-0.4c0.6,0,1.5,0.4,2.4,0.7c0.7,0.4,1.7,0.7,2.6,0.9c0.7,0.2,1.5,0.2,2.2,0.2
	c0.4,0,0.9,0,1.3,0c-0.9,0.7-1.9,1.3-2.8,1.5c-0.9,0.2-2,0.2-3.7,0.2h-1.3h-0.1c-0.6,0-1.1,0-1.7,0.2c-0.2,0-0.4,0-0.6,0.2
	c-0.4,0-0.7,0.2-1.1,0.2c-0.7,0-1.3-0.2-1.7-0.2h-0.2c-0.2,0-0.6,0-0.7,0c-0.7,0-1.5,0.2-2,0.4c-0.4,0.2-0.7,0.2-1.1,0.4
	c-0.4,0-0.7,0.2-1,0.2c0,0-0.1,0-0.2,0c-1.1,0-2.4-0.4-3.8-1.1C111.2,106.4,112.3,106.1,113.4,105.5z M127.2,106.8
	c-0.4,0-0.8,0.1-1.3,0.1c-1.5,0.1-2.6,0.2-3.5,0.2c0.1,0,0.1-0.1,0.1-0.1c0.7-0.2,1.3-0.2,1.5-0.2c0,0,0,0,0.2,0c0.4,0,0.9,0,1.3,0
	C126.2,106.8,126.7,106.8,127.2,106.8z M130.1,109c-1.5,1.7-3.2,2.6-4.1,3c-1.7,0.7-3.2,0.9-4.3,0.9c-0.4,0-0.7,0-1.1,0
	c-1.3,0-3.2-0.2-5.4-1.1c-2-0.9-3.7-2.4-4.8-3.9c0.9,0.4,1.9,0.7,3,0.7c0.2,0,0.4,0,0.6,0c0.7,0,1.1-0.2,1.9-0.2
	c0.4,0,0.9-0.2,1.7-0.4c1.3-0.2,2-0.2,3-0.2h0.6h0.7c0.9,0,2.4,0,4.6-0.2c2.4-0.2,3.5-0.4,4.8-0.9c-0.1-0.3,0.5-0.7,1-0.9
	C131.7,106.9,130.8,108,130.1,109z M113.2,91.3C113.2,91.3,113.2,91.3,113.2,91.3C113.2,91.3,113.2,91.3,113.2,91.3z M113.2,91.4
	C113.2,91.4,113.2,91.4,113.2,91.4C113.2,91.4,113.2,91.4,113.2,91.4z M128.4,90.2c0,0,0.1,0.1,0.2,0.3
	C128.5,90.3,128.4,90.2,128.4,90.2z M112.8,92.4c0.2-0.6,0.3-0.9,0.4-1c-0.1,0.1-0.2,0.5-0.2,0.8c0,0.4,0,0.7,0.2,1.1
	c0.2,0.4,0.7,0.6,1.1,0.6c1.1,0.2,2.4,0.2,3.7,0.6c0.7,0.2,1.3,0.6,1.9,0.9c0.6,0.2,1.3,0.2,2,0c0.6-0.2,1.3-0.6,1.9-0.7
	c0.7-0.2,1.3-0.4,2-0.6c0.7-0.2,1.3-0.2,1.9-0.2c0.6,0,1.3,0,1.5-0.4c0.4-0.4,0.2-0.9,0.2-1.3c-0.2-0.4-0.2-0.7-0.4-1.1
	c-0.2-0.3-0.3-0.5-0.4-0.6c0.1,0.1,0.2,0.3,0.4,0.4c0.2,0.2,0.4,0.6,0.6,1.1c0.2,0.4,0.4,0.9-0.2,1.5c-0.6,0.6-1.1,0.6-1.7,0.6
	c-0.6,0-1.3,0.2-1.9,0.4c-0.7,0.2-1.3,0.4-1.9,0.6c-0.6,0.2-1.1,0.6-2,0.9c-0.7,0.2-1.5,0.2-2.2-0.2c-0.7-0.2-1.3-0.7-1.9-0.9
	c-1.3-0.6-2.4-0.6-3.5-0.7c-0.6,0-1.1-0.4-1.3-0.7C112.8,93.1,112.8,92.6,112.8,92.4z"/>
<path fill="#C6434A" stroke="#BE1E2D" stroke-miterlimit="10" d="M203.1,415.7c-0.4,0.8-0.9,1.3-1.3,1.5v0.2
	c-21.7,5.4-50.4,10.2-84.5,10c-30.6-0.2-56.9-4.5-76.9-9.3c-0.5-0.1-3.1-1.4-3.5-2c-0.7-1.3,0-2.6,0.4-4.6c0.9-4.3-0.2-6.7,1.3-7.6
	c0.2-0.2,0.2-0.2,0.4-0.2c0.1,0,0.5,0,0.7,0c21.7,4.2,48.7,7.8,79.8,7.9c31.5,0,58.9-3.7,80.6-8c0.4,0.2,0.7,0.3,1.3,0.9
	c1.5,1.7,0.6,3.2,1.3,7.1C203.1,413.5,203.7,414.6,203.1,415.7z M122.9,179.9c4.4-2.1,12-6.6,19.3-14.6c5.9-6.7,9.5-13.4,11.5-18.4
	c-0.9-0.2-1.9-0.6-2.8-0.9c-2.6-1.1-4.5-2.6-5.8-3.7c-1.3,3.2-3.2,6.9-5.9,10.8c-5.6,8-12.3,12.6-16.7,15.4c-5-2.2-13-6.5-20-14.7
	c-3.5-4.1-5.9-8-7.6-11.5c-1.3,0.9-3.2,2.2-5.8,3.3c-0.7,0.4-1.3,0.6-2,0.7c1.5,3.2,3.2,6.5,5.6,9.8
	C102.4,170,115.3,176.9,122.9,179.9z"/>
<g>
	<path fill="#F5E0CD" d="M133.3,284c-2.4-0.9-4.6-1.9-6.8-2.9c-0.8-0.3-2.6-1.1-4.8-2.2c-1.8-0.8-4-1.8-6.3-2.9l-0.1-0.1l-0.5-0.3
		l-1.8-0.7c-4.7-2.1-8.4-3.7-11.3-4.8c-3.1-1.4-4.9-2.1-7.6-2.8c-1.1-0.3-2.1-0.4-3.4-0.6c-2.1-0.4-4.2-0.6-5.6-0.6H85
		c-4.6-0.7-9.6-1.2-14.7-1.7c-0.2-0.4-0.4-0.8-0.6-1.2c-0.7-1.7-1.4-3.5-2.1-7.2c-0.6-3.3-0.9-6-1.1-7.9c3.7-0.8,7.4-1.2,10.9-1.2
		c2.9,0,5.7,0.3,8.5,0.8c3.3,0.6,4.9,1.3,7.2,2.3c2.5,1.1,5.7,2.5,12.2,4.2c5.2,1.3,8.4,1.9,12.9,2.8c3.1,0.6,6.9,1.3,12.3,2.4
		c2.8,0.6,5.4,1.3,7.8,1.8c-1.8,2.4-3.9,6.2-4.8,11.9C133.2,274.7,132.6,278.5,133.3,284z"/>
	<path fill="#B08874" d="M77.5,247.6c2.8,0,5.7,0.3,8.4,0.8c3.2,0.6,4.8,1.3,7.1,2.3c2.5,1.1,5.7,2.5,12.3,4.2
		c5.2,1.3,8.5,1.9,13,2.8c3.1,0.6,6.9,1.3,12.3,2.4c2.4,0.6,4.8,1.1,7.1,1.6c-1.7,2.5-3.6,6.2-4.5,11.4c-0.3,1.4-0.9,4.9-0.3,10
		c-2.1-0.8-4.1-1.7-5.9-2.6l0,0l0,0c-0.8-0.3-2.5-1.1-4.7-2.1c-1.8-0.8-3.9-1.8-6.2-2.8l-0.2-0.1l-0.5-0.3l-0.1,0l-0.1,0l-1.7-0.7
		c-4.7-2.1-8.4-3.7-11.3-4.8c-3.2-1.4-5-2.2-7.7-2.8c-1.1-0.3-2.2-0.4-3.4-0.6c-2.2-0.4-4.3-0.6-5.7-0.6H85
		c-4.6-0.7-9.5-1.2-14.5-1.6c-0.1-0.3-0.3-0.6-0.4-0.9c-0.7-1.6-1.4-3.5-2-7.1c-0.6-3-0.9-5.6-1.1-7.4
		C70.6,248,74.1,247.6,77.5,247.6 M77.5,246.6c-3.7,0-7.5,0.4-11.5,1.3l0,0c0.2,1.9,0.5,4.9,1.2,8.4c0.7,3.7,1.3,5.6,2.1,7.3
		c0.2,0.5,0.5,1,0.7,1.5c5.2,0.4,10.2,1,15,1.7h0.3c1.4,0,3.5,0.2,5.6,0.6c1.2,0.1,2.3,0.3,3.3,0.5c2.6,0.6,4.4,1.4,7.5,2.8
		c2.9,1.2,6.6,2.7,11.3,4.8l1.8,0.7l0.5,0.3l0,0c2.4,1.1,4.6,2.1,6.4,2.9c2.2,1,4,1.8,4.8,2.2c2.4,1.1,4.9,2.2,7.6,3.2
		c-0.9-5.8-0.3-9.9,0.1-11.4c1-6,3.4-10,5.2-12.3c-2.6-0.6-5.5-1.3-8.5-2c-5.5-1.1-9.3-1.9-12.4-2.4c-4.5-0.8-7.7-1.5-12.9-2.8
		c-6.5-1.7-9.6-3.1-12.1-4.2c-2.3-1-4-1.7-7.3-2.3C83.3,246.9,80.4,246.6,77.5,246.6L77.5,246.6z"/>
</g>
<g>
	<path fill="#F5E0CD" stroke="#B08874" stroke-miterlimit="10" d="M173.6,248.7c-3.1,2.5-6.8,5-11.3,7.2c-3.8,2-7.4,3.3-11.8,4.5
		c0.4,0.1,0.8,0.3,1.4,0.4c4.5,1.5,10.4,3,11,3.2c-0.1-2.2,1.3-4.2,3.2-4.8c1.5-0.4,3.2,0.2,4.3,1.3c-0.9-1.3-0.9-3,0-4.3
		c0.9-1.1,2.2-1.7,3.7-1.3C173.9,253.1,173.7,251,173.6,248.7z"/>
	<path fill="#F5E0CD" stroke="#B08874" stroke-miterlimit="10" d="M114.1,277c0.1,0.3,0.2,0.6,0.4,0.9c1,3.5,1.4,8.2,0.7,11.7
		c1.3-0.3,3-0.8,5.1-1.5c3.8-1.3,7-2.5,9.9-3.8c-1.6-0.6-3-1.3-4.2-1.9C124.5,281.9,119.7,279.6,114.1,277z"/>
</g>
<path fill="#C6434A" stroke="#BE1E2D" stroke-miterlimit="10" d="M114.2,277.7c1.6,6,1.6,14.7-2.3,16.2c-1,0.6-1,0-4.3,0.2
	c-3.8,0.2-6.7,1-9.7,1.7c-1.1,0.4-2.6,0.7-4.3,1.3c0.8-2.9,1.5-7.7,0.4-13.5c-1.4-7.3-5.4-12.6-8.5-15.8c0,0,0,0,0,0
	c3.3,0.5,5.3,0.3,8.3,1c3.2,0.8,5,1.7,10.5,4.1c2.2,1,5.5,2.4,9.6,4C114.1,277.2,114.2,277.5,114.2,277.7z M163.1,264.1
	c-0.2,0-9.7-2.6-11.1-3c-0.2,0-2-0.4-3.5-1.3c-0.2,0-0.2-0.2-0.4-0.2c-0.7-0.6-1.3-1.3-2.4-1.5c0,0-0.9-0.2-2,0.4
	c-1.9,0.7-7.1,5.6-8.7,15c-0.6,2.6-0.9,7.1,0.2,12.6c0.2,0.6,0.2,1.1,0.6,2c0.4,0.9,0.6,1.5,1.1,1.9c0.9,0.7,2.2,0.6,2.8,0.4
	c2.2-0.4,4.5,0.6,9.3,2.2c2,0.7,4.8,2,8,4c-0.6-4.8-0.7-12.1,1.5-20.2C159.8,271.4,161.5,267.3,163.1,264.1z"/>
<path fill="#DDC6B6" d="M119.2,98.2c-1.3,0.4-2.2,0.9-3,1.3c-5.8,3.2-7.4,2.6-9.7,5c-0.7,0.7-1.5,1.9-2.2,3.7c1.7-1.1,3.3-2,4.5-2.6
	c0,0,5.2-2.8,9.8-3.9c1.3-0.4,2.2-0.4,2.6-0.4c0.4,0,1.3,0,2.4,0c2.6,0.2,3.2,0.9,5.9,1.5c2.6,0.4,3.3,0,4.6,0.7
	c1.1,0.7,1.9,1.7,2.4,2.4c0-1.1,0-3-1.3-4.3c-0.7-0.9-1.7-0.9-4.5-1.7c-4.5-1.3-4.6-1.9-7.2-2C121.2,97.6,119.7,98,119.2,98.2z"/>
<path d="M238.5,788.4c-3.9,5.2-13.2,4.8-19.1,2.8c-6.3-2.3-9.8-6.5-17.6-17.3c-5.7-7.9-12-16.8-18.9-26.8c0.2-2.8,0.4-6.7,0.2-11
	c0.9,1.3,2,2.6,3.5,3.9c3.9,3.7,8,5.8,10.6,6.9c-2.2-5.7,0.6-11.6,5.2-13.5c3.3-1.3,7.2-0.4,10.2,2.4c1.8,3.4,4.2,7.3,7.4,11.9
	c11.1,15.7,18.1,18.9,20,30.4C241.1,785,239.3,787.8,238.5,788.4z M76.3,49.7c-0.4,0.2-2.8,2.2-2.8,5.6c0,2.6,1.5,5,3.9,6.3
	c-1.9,1.1-2.4,3.5-1.5,5.2c0.7,1.5,2.4,2.4,4.3,2.2c1.1,3.5,2,6.9,3.2,10.4c0-5,0.2-9.1,0.6-12.3c0.6-5.2,1.1-6.5,1.5-7.1
	c1.7-3.3,3.5-4.3,4.3-7.1c0.6-2.4-0.2-4.6-0.9-6.3c0.4,0,3,0.6,5-1.3c2-1.7,2-4.1,2-4.5c0.9,2.4,3.2,3.9,5.4,3.9
	c3,0,5.9-2.4,6.3-6.1c0.2,0.4,2.8,3.3,6.9,3.3c2.4,0,4.6-1.3,6.1-3c1.5,1.7,3.7,2.8,5.9,3c4.1,0.2,6.7-3,6.9-3.3
	c0.4,3.5,3.2,6.1,6.3,6.1c2.2,0,4.5-1.7,5.4-3.9c0,0.4,0.2,2.8,2,4.5c2.2,1.9,4.8,1.3,5,1.3c-0.7,1.5-1.5,3.9-0.9,6.3
	c0.7,2.8,2.6,3.7,4.3,7.1c0.2,0.6,0.9,1.9,1.5,7.1c0.4,3,0.6,7.2,0.6,12.3c1.1-3.5,2-6.9,3.2-10.4c1.9,0.2,3.5-0.7,4.3-2.2
	c0.9-1.9,0.2-4.1-1.5-5.2c2.4-1.3,3.9-3.7,3.9-6.3c0-3.3-2.6-5.4-2.8-5.6c3.2-2.4,4.3-6.7,2.8-9.8c-1.3-2.6-4.3-4.3-7.4-4.3
	c2.6-2.4,3.3-6.1,2-9.1c-1.7-3.7-6.3-5.6-10.6-3.9c2-2.6,2.6-5.8,1.3-8.2c-1.9-3.5-7.2-5-12.1-2c0.9-3,0-6.1-2.2-8
	c-2.8-2.4-7.2-2.2-10.2,0.6c-2.4-3.2-6.5-4.3-10.2-3.2c-1.1,0.4-2,0.9-2.8,1.5c-0.6,0.6-1.1,0.9-1.7,1.7c-3.9-3-8.5-2.8-11.1-0.4
	c-1.9,1.9-2.6,4.8-1.9,7.6c-4.8-2.8-10.2-1.3-12.1,2.2c-1.3,2.4-0.7,5.6,1.3,8.2c-4.3-1.7-8.9,0.2-10.6,3.9c-1.3,3-0.6,6.7,2,9.1
	c-3.2,0-6.1,1.7-7.4,4.3C72.1,43,73.2,47.2,76.3,49.7z M129.6,62.8c0.9,0.2,1.9-0.2,4.5-1.9c4.3-2.8,4.6-3.9,6.5-4.5
	c1.3-0.4,3.5-0.6,6.7,0.7c-3-3.7-5.4-3.9-6.3-3.9c-3.2,0-6.7,3.2-7.8,4.3c-1.3,1.1-2.2,2.2-3.9,2.6c-1.3,0.2-2.4-0.2-3.3-0.6
	C126.3,60.6,127.4,62.7,129.6,62.8z M140.5,72.5c1.9,0,3.3-1.5,3.3-3.3c0-0.2,0-0.4,0-0.4c0.7,0.2,1.3,0.4,1.9,0.7
	c1.6,0.6,2.5,1.1,2.5,1.1s-0.9-0.9-2.4-1.9c-1.7-0.9-4.1-1.9-6.7-1.7c-0.6,0-1.3,0.2-1.9,0.4c-0.6,0.2-1.1,0.4-1.7,0.7
	c-1.1,0.6-1.9,1.3-2.6,1.9c-1.3,1.3-1.9,2.6-1.9,2.6s0.2-0.2,0.6-0.6c0.4-0.4,0.9-0.9,1.7-1.5c0.8-0.6,1.7-1.1,2.6-1.5
	c0.4-0.2,0.7-0.4,1.3-0.4c0,0.2,0,0.4,0,0.6C137.2,71.1,138.7,72.5,140.5,72.5z M112.7,124.5C112.7,124.6,112.7,124.6,112.7,124.5
	C112.7,124.6,112.7,124.6,112.7,124.5C112.7,124.6,112.7,124.5,112.7,124.5z M196.3,710.5c4.5-0.7,7.6-2.6,9.8-3.9
	c0.4-32.8,2.2-66.2,2.2-88.2c0-12.3,0-21.7,0-21.7c0-14.3-0.2-16.3,0-21c0.2-12.8,1.3-22.3,1.9-27.4c1.7-16.1,3.5-45.9,2.8-67.5
	c-0.6-15.2-3-37.2-11.3-63.6c-21.5,5.4-50.4,10.2-84.5,10c-31.5-0.2-58.2-4.8-78.7-9.8c-0.2-0.2-0.4-0.2-0.6-0.4
	c-8.4,26.5-10.8,48.2-11.3,63.6c-0.7,21.5,1.1,51.3,2.8,67.5c0.6,5,1.7,14.3,1.9,27.4c0.2,4.6,0,6.9,0,21c0,0,0,9.3,0,21.7
	c0,22.3,2,56.5,2.4,89.8c0,0.6,0,1.5,0,2.2c1.9,0.9,4.1,1.7,6.5,2.4c0,0,1.3,0.4,2.6,0.6c5.8,0.9,17.1-0.6,17.6-0.7
	c0.4-3.5,1.3-9.7,2.6-17.4c3.5-20.4,7.1-30.2,14.8-63c7.4-32,4.6-26.1,11.1-53.4c7.4-30.9,12.3-43,19.9-77.6
	c2.4-10.8,4.1-19.7,5.2-25.7c0-0.9,0-1.9,0.2-2.8c1.7-2,3.5-3.2,5.2-3.3c1.9,0,4.1,1.3,5.9,3.7c0,0.7,0,1.7,0,2.4
	c1.1,5.8,2.8,14.7,5.2,25.7c7.6,34.6,12.4,46.5,19.9,77.6c6.5,27.4,3.7,21.2,11.1,53.4c7.4,31.8,10.6,43.3,14.8,63
	c1.3,5.8,2.2,10.4,2.8,13.2C182,709.6,188.3,712,196.3,710.5z M107.4,66.2c0.9,0.2,2,0.7,3.3,0.2c1.1-0.6,1.7-1.9,2-2.6
	c-0.6,0.2-1.5,0.4-2.6,0.4c-2.2,0-3.3-1.1-5.4-1.9c-0.9-0.4-5.2-1.9-8.7-0.2c-0.7,0.4-2.4,1.3-3.5,3.7c2.2-1.3,4.1-1.7,5.4-1.7
	C100.8,64.1,104.7,65.4,107.4,66.2z M101.6,72.4c1.8,0,3.3-1.5,3.3-3.3c0-0.2,0-0.4,0-0.6c0.4,0.2,0.7,0.2,0.9,0.4
	c0.8,0.4,1.6,1,2.4,1.5c0.7,0.6,1.3,1.1,1.7,1.5c0.4,0.4,0.6,0.6,0.6,0.6s-0.6-1.1-1.9-2.6c-0.7-0.7-1.5-1.3-2.6-1.9
	c-0.6-0.2-1.1-0.6-1.7-0.7c-0.6-0.2-1.3-0.4-1.9-0.4c-2.6-0.2-5,0.7-6.7,1.7c-1.7,0.9-2.4,1.9-2.4,1.9s1.1-0.7,2.8-1.3
	c0.7-0.4,1.5-0.6,2.2-0.7c0,0.2,0,0.4,0,0.6C98.3,71,99.8,72.4,101.6,72.4z M52.8,738.4c-3.6,4.3-7.3,6.7-9.7,8
	c2-8.5-3.2-15.5-8.4-16.1c-1.7-0.2-3.5,0.4-5.2,1.5c-2.4,5.2-5.6,10.1-9.5,16c-6.4,9.6-7.1,8.7-11,15.4c-5.4,9-11.7,19.6-7.6,25.5
	c3.3,4.9,12.6,4.9,18.9,3c6.5-2.3,10.4-7.3,17.6-17.3c11-15.1,16.2-22.1,19.5-26.6c-0.3-4.3-0.5-10.3,0-17.6
	C56.5,732.5,55.2,735.4,52.8,738.4z M132.1,125.6c-0.3,0-0.5,0.2-0.1,0.4c-0.7,0-0.9,0-0.6,0.6c-0.6-0.4-0.7-0.4-1.1,0.4
	c0-0.6-0.2-0.6-0.6,0c0-0.2,0-0.2,0-0.2s-0.2,0-0.2,0.2c0-0.2-0.2,0-0.2,0c-0.2,0-0.4,0-0.2,0.2c-0.2-0.2-0.4-0.2-0.2,0.2
	c-0.4-0.2-0.6-0.2-0.6,0.2c-0.2-0.2-0.4-0.2-0.6,0c-0.2,0-0.2,0-0.4,0s-0.4,0-0.4,0.2c-0.2,0-0.4,0-0.4,0.2
	c-0.2-0.2-0.4-0.2-0.6,0.2c-0.4-0.2-0.6-0.2-0.9,0c-0.2,0-0.2,0-0.4,0s-0.2,0-0.4,0.2c-0.4,0-0.6,0-0.7,0.2c-0.4-0.2-0.6-0.2-0.9,0
	c-0.2,0-0.2,0-0.4,0s-0.4,0-0.4,0c-0.2,0-0.6,0-0.7,0.2c-0.2,0-0.2,0-0.4,0c-0.2,0-0.2,0-0.4,0s-0.2,0-0.2,0
	c-0.2-0.2-0.4-0.2-0.4,0.2c-0.2-0.4-0.4-0.4-0.4,0c-0.2-0.4-0.4-0.4-0.6,0c-0.2-0.4-0.4-0.6-0.9-0.4c0-0.2-0.2-0.2-0.2-0.2
	c-0.2,0-0.2,0-0.4,0s-0.2,0-0.4,0s-0.4-0.2-0.4,0c-0.2-0.2-0.4-0.2-0.6-0.2l-0.2-0.2c-0.2,0-0.2,0-0.2,0c-0.2-0.2-0.2-0.2-0.2,0
	c-0.2-0.2-0.2-0.2-0.4,0c-0.2-0.4-0.2-0.4-0.4,0c0-0.4-0.2-0.4-0.4,0c0-0.4,0-0.4-0.4-0.2c0-0.4,0-0.4-0.4-0.2
	c0.2-0.2,0-0.4-0.2-0.2c0.2-0.2,0-0.2-0.2-0.2c0-0.2,0-0.2-0.2-0.2h0.6c-0.2-0.2-0.4-0.4-0.6-0.2c-0.2-0.2-0.2-0.4-0.4-0.4
	c-0.2-0.2-0.4-0.2-0.6,0c-0.2-0.4-0.4-0.6-0.4,0c-0.2-0.6-0.2-0.7-0.7-0.2c0-0.6-0.2-0.7-0.7-0.7c0-0.2-0.2-0.4-0.4-0.6
	c-1.1-0.7-2.2-1.5-3-2c0.9,0.4,1.7,0.7,2.6,1.1c0.2,0.2,0.6,0.2,0.7,0.2c0.1,0,0.6,0.2,0.4,0c0.6,0.4,0.7,0.4,0.7-0.2
	c0.4,0.6,0.6,0.6,0.7,0c0,0.6,0,0.6,0.4,0c-0.2,0.6,0,0.6,0.4,0.6c0,0,0.2-0.2,0.2-0.4c0,0.2,0,0.2,0,0.2c0,0.1,0.1,0.2,0.2,0.2
	c-0.2,0.3-0.2,0.3,0.1,0.3c0,0,0-0.1,0-0.3c0,0,0.1,0,0.1,0c0,0,0.2,0.2,0.2,0c0,0,0.2,0,0.2-0.2c0.2,0.4,0.4,0.4,0.6,0
	c0,0.2,0,0.2,0,0.2h0.2c0,0,0,0,0.2-0.2c0.2,0,0.2,0,0.2-0.2c0.2,0.2,0.2,0.2,0.2-0.2c0.2,0.2,0.2,0.4,0.4,0
	c0.2,0.4,0.2,0.2,0.2-0.2c0,0.1,0,0.1,0,0.2c0,0.2,0,0.2,0.2,0c0,0.2,0,0.4,0.2,0.2c0,0.2,0,0.2,0.2,0c0,0,0,0,0.2-0.2
	c0,0,0,0,0,0.2c0,0,0,0,0.2,0c0,0-0.2,0-0.2,0.2c0,0,0,0,0.2,0c0,0,0,0,0.2,0c-0.1,0.1-0.1,0.1,0,0c0,0,0,0,0,0c0,0,0,0,0,0
	c0,0,0.1,0,0.2,0c0,0-0.1,0.1-0.1,0.1c0.2,0.1,0.3,0.1,0.5,0.1c0,0,0-0.2-0.2-0.4c0.6,0.4,0.6,0.4,0.6-0.4c0.2,0.6,0.4,0.6,0.6-0.2
	c0,0.4,0.2,0.6,0.4,0.2c0,0,0-0.2,0-0.4c0.2,0.4,0.4,0.4,0.6,0.2c0,0,0.2-0.2,0.2-0.6c0.4,0.6,0.6,0.4,0.9-0.2c0,0.6,0.2,0.6,0.6,0
	c-0.2,0.4,0,0.4,0.4,0c-0.2,0.2-0.2,0-0.2-0.2c0.2,0.2,0.4,0.2,0.6,0.2c0.4,0,0.6-0.4,0.6-0.9c0.4,0.6,0.6,0.7,0.9,0.7
	c0.2,0,0.4,0,0.6-0.4c0,0.2-0.2,0.4-0.2,0.4c0.2,0.2,0.4,0.2,0.2-0.2c0.4,0.4,0.4,0.4,0.2,0c0.6,0.4,0.6,0.4,0.4-0.2
	c0.6,0.6,0.7,0.6,1.3,0c-0.2,0.7,0,0.7,0.7,0.6c-0.1,0.1-0.1,0.2-0.2,0.2c0.2,0.2,0.2,0.2,0.4,0c0,0.4,0.2,0.4,0,0
	c0.2,0.4,0.4,0.6,0.4,0c0.2,0.7,0.6,0.7,1.1,0.4c0,0.2,0,0.4,0,0.6c0.2,0,0.4,0,0.6,0c0,0.2,0.2,0.2,0.2,0c0.2,0.2,0.4,0.2,0.4,0
	c0.2,0.2,0.4,0.2,0.6,0.4c0.2,0,0.4,0,0.7,0c0.2,0.2,0.2,0.2,0.4,0c0.2,0.2,0.4,0.2,0.4,0c0.2,0.2,0.4,0.2,0.4,0c0,0,0,0,0.2,0
	c0.2,0,0.6,0.2,0.7,0c0.2,0,0.4,0,0.7,0c0.2,0,0.6,0,0.7,0c-0.4,0-0.2,0,0.6-0.2c0.1,0,0.1,0,0.2,0c0.2,0,0.4-0.2,0.6-0.2
	c0.2,0,0.4-0.2,0.6-0.2c-0.2,0.2-0.4,0.4-0.7,0.6c-0.2,0.2-0.4,0.2-0.6,0.4c-0.9-0.2-1.3-0.2-1.2,0.4c-0.4,0-0.6,0-0.7,0
	s-0.4,0.2-0.4,0.6C132.2,125.7,132.1,125.6,132.1,125.6z M116.6,124.6c0,0-0.1,0-0.1-0.1c-0.1,0.1-0.2,0.2-0.2,0.2
	C116.4,124.8,116.5,124.8,116.6,124.6z M106.4,80.2c0,0.4,0.4,0.7,0.9,0.7s0.9-0.3,0.9-0.7s-0.4-0.7-0.9-0.7S106.4,79.8,106.4,80.2z
	"/>
</svg>
